<svg width="80" height="90" viewBox="0 0 80 90" fill="none" xmlns="http://www.w3.org/2000/svg">
<path d="M50.6661 52.4281V52.5718C50.7056 55.6111 53.2612 57.8966 58.3327 59.4281C52.2217 63.8724 46.1104 67.4281 39.9994 67.4281C33.8884 67.4281 27.7771 63.8724 21.6661 59.4281C26.7032 57.8948 29.2587 55.6059 29.3327 52.5614C29.3327 52.0188 29.3287 51.2481 29.3251 49.8011C29.3251 49.5713 29.3245 49.336 29.3234 49.0951C28.9591 49.1464 28.9901 49.1138 29.3234 49.0211C29.3134 45.2148 29.2971 40.0964 29.2744 34.8948C24.4971 28.7024 26.2521 21.4428 27.7491 21.6238C29.5841 21.8474 45.4851 6.75811 48.5351 5.98444C51.5851 5.21078 59.3327 7.70844 60.6661 14.6668C61.9994 21.6251 62.5567 39.1644 57.4994 46.1668C56.0603 48.1594 53.7936 48.9389 50.6994 48.5051C50.6951 49.9614 50.6864 50.7788 50.6661 52.4281Z" fill="url(#paint0_linear_2847_4707)"/>
<path d="M50.666 48.5C43.3327 47.6667 38.666 44.5 38.666 44.5C38.666 44.5 43.7127 51.2057 50.666 52.5V48.5Z" fill="#353641"/>
<path d="M26.8329 35.0001C24.5363 29.4768 15.3329 18.2278 23.2663 11.2278C25.9329 -1.77223 40.6663 -0.333226 50.4996 2.66677C57.1086 4.68311 62.0996 8.66677 63.1663 5.66677C69.8329 11.2278 66.4943 16.6668 62.0996 18.2278C58.1109 19.6444 51.3663 21.0611 39.8976 19.7278C37.8489 19.4894 38.2779 25.7638 37.1833 26.4421C35.5409 27.4598 34.2663 21.0611 29.7636 22.9824C25.2609 24.9038 27.9329 33.8124 32.7663 33.8124C34.4329 33.8124 35.2663 38.3948 30.7663 40.5614C27.4996 42.1668 28.3253 38.5891 26.8329 35.0001Z" fill="url(#paint1_linear_2847_4707)"/>
<path d="M5 69.6027C1.82667 76.0551 0 90.9361 0 90.9361H80C80 90.9361 78.1727 76.0534 75 69.6027C71.8273 63.1521 53.3 57.1691 53.3 57.1691C49.729 64.5001 30.1307 64.5001 26.7097 57.1667C26.7097 57.1667 8.17333 63.1504 5 69.6027Z" fill="url(#paint2_linear_2847_4707)"/>
<mask id="mask0_2847_4707" style="mask-type:alpha" maskUnits="userSpaceOnUse" x="0" y="57" width="80" height="34">
<path d="M5 69.6027C1.82667 76.0551 0 90.9361 0 90.9361H80C80 90.9361 78.1727 76.0534 75 69.6027C71.8273 63.1521 53.3 57.1691 53.3 57.1691C49.729 64.5001 30.1307 64.5001 26.7097 57.1667C26.7097 57.1667 8.17333 63.1504 5 69.6027Z" fill="url(#paint3_linear_2847_4707)"/>
</mask>
<g mask="url(#mask0_2847_4707)">
<path d="M83.333 84.1667V81.5001H-3.33366V84.1667H83.333ZM83.333 77.5001V74.8334H-3.33366V77.5001H83.333ZM83.333 70.8334V68.1667H-3.33366V70.8334H83.333Z" fill="#EDEDEE"/>
</g>
<defs>
<linearGradient id="paint0_linear_2847_4707" x1="41.6255" y1="5.84912" x2="41.6255" y2="67.4281" gradientUnits="userSpaceOnUse">
<stop stop-color="#FFDCC2"/>
<stop offset="1" stop-color="#FFDCC2"/>
</linearGradient>
<linearGradient id="paint1_linear_2847_4707" x1="43.5195" y1="40.9562" x2="43.5195" y2="0.629395" gradientUnits="userSpaceOnUse">
<stop stop-color="#464856"/>
<stop offset="1" stop-color="#464856"/>
</linearGradient>
<linearGradient id="paint2_linear_2847_4707" x1="40" y1="90.9361" x2="40" y2="57.1667" gradientUnits="userSpaceOnUse">
<stop stop-color="#464856"/>
<stop offset="1" stop-color="#464856"/>
</linearGradient>
<linearGradient id="paint3_linear_2847_4707" x1="40" y1="90.9361" x2="40" y2="57.1667" gradientUnits="userSpaceOnUse">
<stop stop-color="#E6864E"/>
<stop offset="1" stop-color="#E67240"/>
</linearGradient>
</defs>
</svg>
