<svg width="24" height="17" viewBox="0 0 24 17" fill="none" xmlns="http://www.w3.org/2000/svg">
<path d="M11.6703 8.72C11.1117 8.25813 10.6637 7.68688 10.3566 7.04502C10.0495 6.40316 9.8906 5.70571 9.89061 5C9.89061 3.67392 10.4421 2.40215 11.4237 1.46447C12.4054 0.526784 13.7367 1.78911e-07 15.125 1.78911e-07C16.5132 1.78911e-07 17.8446 0.526784 18.8263 1.46447C19.8079 2.40215 20.3594 3.67392 20.3594 5C20.3594 5.70571 20.2005 6.40316 19.8934 7.04502C19.5863 7.68688 19.1383 8.25813 18.5797 8.72C20.0452 9.35388 21.2885 10.3775 22.1611 11.6685C23.0336 12.9596 23.4985 14.4633 23.5 16C23.5 16.2652 23.3897 16.5196 23.1934 16.7071C22.997 16.8946 22.7308 17 22.4531 17C22.1755 17 21.9092 16.8946 21.7129 16.7071C21.5165 16.5196 21.4062 16.2652 21.4062 16C21.4062 14.4087 20.7445 12.8826 19.5665 11.7574C18.3885 10.6321 16.7909 10 15.125 10C13.4591 10 11.8614 10.6321 10.6835 11.7574C9.50551 12.8826 8.84373 14.4087 8.84373 16C8.84373 16.2652 8.73344 16.5196 8.53711 16.7071C8.34078 16.8946 8.07451 17 7.79686 17C7.51921 17 7.25293 16.8946 7.0566 16.7071C6.86028 16.5196 6.74998 16.2652 6.74998 16C6.75152 14.4633 7.21636 12.9596 8.08892 11.6685C8.96147 10.3775 10.2048 9.35388 11.6703 8.72ZM15.125 8C15.7461 8 16.3534 7.82405 16.8698 7.49441C17.3863 7.16476 17.7888 6.69623 18.0266 6.14805C18.2643 5.59987 18.3265 4.99667 18.2053 4.41473C18.0841 3.83279 17.785 3.29824 17.3458 2.87868C16.9065 2.45912 16.3469 2.1734 15.7377 2.05764C15.1285 1.94189 14.497 2.0013 13.9231 2.22836C13.3492 2.45542 12.8588 2.83994 12.5137 3.33329C12.1686 3.82664 11.9844 4.40666 11.9844 5C11.9844 5.79565 12.3152 6.55871 12.9042 7.12132C13.4932 7.68393 14.292 8 15.125 8ZM4.92842 8.32C4.25845 7.59933 3.82081 6.70905 3.66819 5.75634C3.51556 4.80362 3.65445 3.82907 4.06813 2.95C4.48182 2.07093 5.15267 1.3248 5.99993 0.801423C6.84719 0.27805 7.83475 -0.0002576 8.84373 1.78911e-07C9.12138 1.78911e-07 9.38766 0.105357 9.58399 0.292893C9.78032 0.48043 9.89061 0.734784 9.89061 1C9.89061 1.26522 9.78032 1.51957 9.58399 1.70711C9.38766 1.89464 9.12138 2 8.84373 2C8.01079 2 7.21196 2.31607 6.62297 2.87868C6.03399 3.44129 5.70311 4.20435 5.70311 5C5.70459 5.52524 5.85041 6.0409 6.12598 6.49542C6.40155 6.94994 6.79722 7.32738 7.27342 7.59C7.42863 7.67552 7.55827 7.79766 7.64992 7.94474C7.74156 8.09182 7.79216 8.2589 7.79686 8.43C7.80124 8.59976 7.76029 8.7678 7.67787 8.91826C7.59545 9.06872 7.47427 9.19665 7.32576 9.29L6.91748 9.55L6.78139 9.62C5.51949 10.1917 4.4549 11.096 3.71302 12.2263C2.97113 13.3566 2.58284 14.6659 2.59389 16C2.59389 16.2652 2.48359 16.5196 2.28726 16.7071C2.09093 16.8946 1.82466 17 1.54701 17C1.26936 17 1.00308 16.8946 0.806755 16.7071C0.610428 16.5196 0.500134 16.2652 0.500134 16C0.491575 14.4654 0.893944 12.9543 1.669 11.6101C2.44406 10.2659 3.56607 9.13331 4.92842 8.32Z" fill="#F9DDE7"/>
</svg>
